<?xml version="1.0" encoding="UTF-8" standalone="no"?>
<!DOCTYPE svg PUBLIC "-//W3C//DTD SVG 1.1//EN" "http://www.w3.org/Graphics/SVG/1.1/DTD/svg11.dtd">
<svg width="100%" height="100%" viewBox="0 0 30 42" version="1.1" xmlns="http://www.w3.org/2000/svg" xmlns:xlink="http://www.w3.org/1999/xlink" xml:space="preserve" xmlns:serif="http://www.serif.com/" style="fill-rule:evenodd;clip-rule:evenodd;stroke-linejoin:round;stroke-miterlimit:2;">
    <g transform="matrix(1,0,0,1,-1855.73,-13.6115)">
        <g transform="matrix(1,0,0,2.20208,1667.25,9.61153)">
            <g id="Artboard4" transform="matrix(0.135956,0,0,0.0617399,188.484,1.8164)">
                <rect x="0.007" y="0.001" width="220.659" height="308.279" style="fill:none;"/>
                <g>
                    <path d="M95.014,73.535C95.014,73.535 97.67,64.601 108.528,64.601C118.56,64.601 122.042,73.535 122.042,73.535L178.21,226.562C178.21,226.562 183.489,237.861 169.358,241.996C154.787,246.255 151.755,235.302 151.755,235.302L108.528,117.534L86.151,178.499L103.426,179.438C110.278,179.898 115.692,185.255 115.692,191.781C115.692,198.307 110.278,203.664 103.426,204.125L76.396,205.072L65.301,235.302C65.301,235.302 62.155,247.557 47.572,242.421C34.707,237.888 38.846,226.562 38.846,226.562L95.014,73.535Z" fill="currentColor"/>
                </g>
            </g>
        </g>
    </g>
</svg>